<?xml version="1.0" standalone="no"?>
<!DOCTYPE svg PUBLIC "-//W3C//DTD SVG 1.1//EN" "http://www.w3.org/Graphics/SVG/1.1/DTD/svg11.dtd">
<svg width="100%" height="100%" viewBox="0 0 721 363" version="1.1" xmlns="http://www.w3.org/2000/svg" xmlns:xlink="http://www.w3.org/1999/xlink" xml:space="preserve" style="fill-rule:evenodd;clip-rule:evenodd;stroke-miterlimit:1.41421;">
    <g transform="matrix(1,0,0,1,-14.3742,-490.127)">
        <g id="Layer1">
            <g id="Layer 1">
                <clipPath id="_clip1">
                    <rect x="14.225" y="490.29" width="720.932" height="362.612"/>
                </clipPath>
                <g clip-path="url(#_clip1)">
                    <g id="g3413" transform="matrix(1,0,0,1,1.76275,148.071)">
                        <g id="path70" transform="matrix(1.70522,0,0,1.70522,352.868,563.909)">
                            <path d="M3.86,0L3.85,0C2.91,0 2.08,0.31 1.3,0.94C0.72,1.4 0.32,2.02 0,2.71L0.04,2.71C0.36,2.02 0.76,1.4 1.33,0.94C2.11,0.31 2.94,0.01 3.86,0Z" style="fill:black;fill-opacity:0.937255;"/>
                        </g>
                        <path id="path74" d="M92.939,358.464C92.94,358.464 33.63,617.232 33.63,617.232L450.77,617.232C433.769,615.748 420.346,609.78 412.349,598.9C410.865,596.888 409.64,594.721 408.565,592.453C407.883,590.781 407.242,589.095 406.594,587.39C404.888,581.968 404.209,575.95 404.515,569.539C405.368,551.668 413.753,530.411 428.282,508.151C443.714,484.494 466.08,459.7 493.773,436.691C499.98,431.538 506.398,426.449 513.117,421.504C521.421,415.394 529.79,409.768 538.162,404.505C569.01,385.084 599.78,371.495 627.047,364.592C600.991,373.093 571.719,387.524 542.798,407.17C541.758,407.872 540.731,408.592 539.708,409.301C523.661,420.419 509.124,432.227 496.438,444.152C455.615,482.536 434.037,522.31 443.842,545.612C444.541,547.215 445.375,548.746 446.347,550.195C456.885,565.696 483.003,568.375 516.101,560.053C518.352,559.491 520.603,558.853 522.922,558.188C533.494,555.136 544.719,551.014 556.28,545.932C559.06,544.704 561.869,543.442 564.7,542.095C564.99,541.959 565.262,541.822 565.552,541.669C602.044,523.537 630.089,502.674 636.159,490.139C637.489,487.413 637.809,485.088 636.905,483.265C632.574,474.483 602.266,480.416 565.552,496.321C562.602,497.6 559.618,498.916 556.6,500.317C559.055,498.037 561.611,495.749 564.22,493.496C568.381,489.912 572.689,486.407 577.276,482.945C584.455,477.509 591.713,472.595 598.857,468.238C632.314,442.997 649.228,419.121 645.698,410.26C645.033,408.591 643.617,407.442 641.435,406.743C634.46,404.525 621.731,407.173 606.264,413.511C593.509,418.743 578.859,426.502 564.007,436.158L561.982,437.491C561.982,437.491 561.609,437.704 561.609,437.704C561.609,437.704 554.468,442.446 554.468,442.446C554.468,442.446 558.572,434.933 558.572,434.933C564.659,423.789 574.575,412.162 586.921,401.361C595.976,393.464 606.32,386.024 617.455,379.513C621.667,377.047 625.872,374.757 630.084,372.692C634.399,370.584 638.715,368.711 642.927,367.044C655.164,362.204 666.845,359.264 677.031,358.464C676.104,358.464 648.415,358.464 648.415,358.464C648.415,358.464 551.964,358.464 551.964,358.464C551.964,358.464 126.671,358.464 126.671,358.464C126.671,358.464 92.939,358.464 92.939,358.464ZM398.92,358.837C397.249,384.342 402.194,421.699 413.415,463.175C415.41,470.556 417.582,478.066 419.969,485.663C421.453,490.354 422.983,494.972 424.552,499.518C423.631,500.872 422.704,502.217 421.834,503.568C407.834,525.023 399.651,545.299 397.588,562.931C391.671,543.116 387.216,521.413 384.692,498.399C383.976,491.805 383.415,485.285 383.04,478.842C380.278,432.046 386.387,389.625 398.92,358.837ZM119.53,392.036C119.85,392.028 120.164,392.036 120.489,392.036C120.489,392.036 183.529,392.036 183.529,392.036C188.918,392.036 193.085,393.046 196.052,395.073C199.002,397.113 200.108,399.751 199.409,402.96C199.409,402.96 191.896,436.904 191.896,436.904C191.896,436.904 169.674,436.904 169.674,436.904C169.674,436.904 176.975,403.866 176.975,403.866C176.975,403.866 121.342,403.866 121.342,403.866C121.342,403.866 101.252,494.669 101.252,494.669C101.252,494.669 94.005,527.548 94.005,527.548C94.005,527.548 149.585,527.548 149.585,527.548C149.585,527.548 149.638,527.334 149.638,527.334C149.638,527.334 160.775,477.03 160.775,477.03C160.775,477.03 134.664,477.03 134.664,477.03C134.664,477.03 137.169,465.68 137.169,465.68C137.169,465.68 185.501,465.68 185.501,465.68C185.501,465.68 171.646,528.453 171.646,528.453C171.459,529.347 171.13,530.157 170.687,530.958C169.544,533.038 167.551,534.82 164.772,536.287C160.918,538.316 156.306,539.324 150.917,539.324C150.917,539.324 87.93,539.324 87.93,539.324C82.542,539.324 78.375,538.316 75.408,536.287C72.458,534.258 71.334,531.666 72.051,528.453C72.051,528.453 99.814,402.96 99.814,402.96C100.53,399.751 102.764,397.113 106.635,395.073C106.771,395 106.924,394.983 107.061,394.913C110.594,393.144 114.74,392.149 119.53,392.036ZM218.327,392.036C218.327,392.036 297.673,392.036 297.673,392.036C302.993,392.036 307.175,393.046 310.142,395.073C313.126,397.113 314.269,399.751 313.553,402.96C313.553,402.96 298.738,469.89 298.738,469.89C298.039,473.079 295.752,475.68 291.864,477.723C287.976,479.773 283.4,480.814 278.063,480.814C278.063,480.814 220.405,480.814 220.405,480.814L209.268,531.065C209.268,531.065 207.456,539.324 207.456,539.324C207.456,539.324 185.714,539.324 185.714,539.324C185.714,539.324 187.366,531.864 187.366,531.864C187.366,531.864 218.327,392.036 218.327,392.036ZM327.94,392.036C327.94,392.036 349.682,392.036 349.682,392.036C349.682,392.036 325.063,503.248 325.063,503.248C325.063,503.248 319.681,527.548 319.681,527.548C319.681,527.548 371.69,527.548 371.69,527.548C372.236,531.536 372.873,535.453 373.555,539.324C373.555,539.324 295.328,539.324 295.328,539.324C295.328,539.324 301.509,511.401 301.509,511.401C301.509,511.401 327.94,392.036 327.94,392.036ZM237.457,403.866C237.457,403.866 223.016,468.984 223.016,468.984C223.016,468.984 277.21,468.984 277.21,468.984C277.21,468.984 291.598,403.866 291.598,403.866C291.598,403.866 237.457,403.866 237.457,403.866ZM191.896,549.556C192.108,549.548 192.321,549.556 192.535,549.556C195.059,549.556 197.263,549.999 199.036,550.835C200.929,551.721 202.283,553.039 203.033,554.778C203.766,556.466 203.958,558.382 203.566,560.48C203.566,560.48 203.406,561.279 203.406,561.279C203.406,561.279 197.171,561.279 197.171,561.279C197.171,561.279 197.224,560.533 197.224,560.533C197.386,559.068 197.204,557.915 196.638,557.123C196.565,557.023 196.458,556.892 196.372,556.803C196.231,556.659 196.02,556.495 195.839,556.376C194.967,555.827 193.602,555.524 191.842,555.524C189.506,555.524 187.76,555.931 186.567,556.75C185.407,557.551 184.674,558.446 184.435,559.52C184.197,560.612 184.589,561.185 184.862,561.492C184.87,561.501 184.905,561.536 184.915,561.545C185.26,561.84 186.46,562.53 190.19,563.411C193.567,564.229 195.803,564.964 197.065,565.595C198.974,566.567 200.309,567.827 201.008,569.379C201.707,570.914 201.861,572.71 201.434,574.654C201.008,576.547 200.042,578.293 198.61,579.93C197.195,581.567 195.393,582.863 193.228,583.767C191.079,584.653 188.722,585.152 186.3,585.152C183.231,585.152 180.767,584.687 178.84,583.767C176.828,582.812 175.376,581.305 174.524,579.344C173.705,577.434 173.53,575.266 173.991,572.896C173.991,572.896 174.151,572.15 174.151,572.15L180.279,572.15L180.226,572.896C180.072,574.311 180.223,575.454 180.599,576.306C180.957,577.125 181.639,577.803 182.73,578.331C183.89,578.894 185.339,579.184 186.993,579.184C188.477,579.184 189.832,578.934 191.043,578.491C192.237,578.065 193.185,577.502 193.867,576.786C194.532,576.07 194.922,575.313 195.093,574.494C195.263,573.761 195.223,573.141 194.933,572.629C194.609,572.084 193.967,571.6 192.961,571.191C192.961,571.191 187.739,569.645 187.739,569.645C184.823,568.912 182.86,568.213 181.718,567.514C180.166,566.593 179.047,565.412 178.467,563.997C177.887,562.598 177.825,561.049 178.201,559.361C178.593,557.553 179.465,555.833 180.812,554.298C182.176,552.746 183.937,551.529 186.034,550.728C187.888,550.033 189.84,549.625 191.896,549.556ZM247.848,549.662C248.185,549.636 248.503,549.662 248.861,549.662C248.861,549.662 252.697,550.088 252.697,550.088C252.697,550.088 253.976,550.195 253.976,550.195C253.976,550.195 252.111,554.938 252.111,554.938C252.111,554.938 251.738,555.684 251.738,555.684C251.738,555.684 248.807,555.417 248.807,555.417C247.942,555.417 247.306,555.551 246.889,555.844C246.861,555.865 246.808,555.928 246.782,555.95C246.727,555.999 246.633,556.085 246.569,556.163C246.313,556.5 246,557.101 245.77,558.188C245.77,558.188 245.659,558.649 245.557,559.041C246.904,559.041 250.14,559.041 250.14,559.041C250.14,559.041 248.967,564.316 248.967,564.316C248.967,564.316 245.617,564.316 244.491,564.316C244.15,565.851 239.962,584.619 239.962,584.619C239.962,584.619 233.78,584.619 233.78,584.619C233.78,584.619 237.798,566.584 238.31,564.316C237.269,564.316 234.739,564.316 234.739,564.316C234.739,564.316 235.912,559.041 235.912,559.041C235.912,559.041 238.457,559.041 239.429,559.041C239.599,558.308 239.855,557.389 239.855,557.389C240.23,555.684 240.622,554.458 241.134,553.606C241.833,552.429 242.82,551.444 244.065,550.728C245.09,550.132 246.387,549.776 247.848,549.662ZM262.609,549.929C262.609,549.929 260.993,557.199 260.584,559.041C261.778,559.041 264.581,559.041 264.581,559.041C264.581,559.041 263.408,564.316 263.408,564.316C263.408,564.316 260.469,564.316 259.412,564.316C259.088,565.783 256.534,577.159 256.534,577.159C256.534,577.159 256.321,578.525 256.321,578.917C256.321,578.93 256.32,578.961 256.321,578.971C256.322,578.975 256.32,579.021 256.321,579.024C256.323,579.027 256.372,579.022 256.374,579.024C256.374,579.024 257.014,579.077 257.014,579.077L259.945,578.864L259.625,583.607C259.625,583.607 259.678,584.459 259.678,584.459C259.678,584.459 255.468,584.939 255.468,584.939C253.797,584.939 252.572,584.666 251.685,584.086C250.747,583.472 250.201,582.658 249.98,581.635C249.946,581.448 249.873,581.175 249.873,580.782C249.873,580.015 250.018,578.717 250.513,576.466C250.513,576.466 252.753,566.431 253.23,564.316C252.429,564.316 250.299,564.316 250.299,564.316C250.299,564.316 251.472,559.041 251.472,559.041C251.472,559.041 253.55,559.041 254.403,559.041C254.675,557.813 255.628,553.606 255.628,553.606C255.628,553.606 260.584,550.994 260.584,550.994C260.584,550.994 262.609,549.929 262.609,549.929ZM66.242,550.142C66.242,550.142 90.222,550.142 90.222,550.142L88.89,556.11C88.89,556.11 72.892,556.11 71.358,556.11C71.085,557.321 69.991,562.223 69.599,563.997C71.816,563.997 84.786,563.997 84.786,563.997L83.454,569.965C83.454,569.965 69.802,569.965 68.267,569.965C67.943,571.449 65.016,584.619 65.016,584.619C65.016,584.619 58.569,584.619 58.569,584.619C58.569,584.619 66.242,550.142 66.242,550.142ZM98.375,558.561C98.616,558.532 98.878,558.561 99.121,558.561C100.656,558.561 102.073,559.028 103.437,560C103.437,560 104.29,560.586 104.29,560.586L100.986,566.022C100.986,566.022 100.08,565.382 100.08,565.382C99.415,564.956 98.699,564.743 97.949,564.743C97.301,564.743 96.697,564.973 96.083,565.382C95.436,565.808 94.894,566.373 94.485,567.141C93.769,568.454 93.244,569.924 92.886,571.51C92.886,571.51 90.009,584.619 90.009,584.619C90.009,584.619 83.827,584.619 83.827,584.619C83.827,584.619 89.529,559.041 89.529,559.041C89.529,559.041 95.284,559.041 95.284,559.041C95.284,559.041 95.086,559.817 95.018,560.107C95.291,559.902 95.578,559.621 95.817,559.467C96.643,558.974 97.515,558.667 98.375,558.561ZM116.706,558.561C117.078,558.533 117.445,558.561 117.825,558.561C121.304,558.561 123.936,559.781 125.658,562.185C126.733,563.737 127.31,565.655 127.31,567.94C127.31,569.202 127.155,570.56 126.831,572.043L126.351,573.908C126.351,573.908 110.719,573.908 108.979,573.908C108.945,574.266 108.926,574.65 108.926,574.974C108.926,576.304 109.199,577.351 109.779,578.118C110.054,578.493 110.373,578.831 110.738,579.077C111.425,579.525 112.311,579.77 113.349,579.77C114.611,579.77 115.719,579.423 116.759,578.758C117.748,578.127 118.695,577.118 119.53,575.72C119.53,575.72 126.138,575.72 126.138,575.72C126.138,575.72 125.552,576.999 125.552,576.999C124.29,579.557 122.529,581.552 120.33,582.967C118.13,584.383 115.502,585.152 112.603,585.152C108.834,585.152 106.029,583.933 104.29,581.529C102.568,579.175 102.197,575.923 103.118,571.83C104.038,567.669 105.876,564.344 108.553,562.025C110.953,559.944 113.675,558.79 116.706,558.561ZM144.469,558.561C144.841,558.533 145.208,558.561 145.588,558.561C149.067,558.561 151.699,559.781 153.422,562.185C154.496,563.737 155.074,565.655 155.074,567.94C155.074,569.185 154.918,570.523 154.594,571.99C154.594,571.99 154.114,573.908 154.114,573.908C154.114,573.908 138.482,573.908 136.742,573.908C136.725,574.147 136.706,574.362 136.689,574.601C136.676,574.691 136.695,574.826 136.689,574.921C136.689,574.936 136.689,574.959 136.689,574.974C136.689,575.23 136.725,575.481 136.742,575.72C136.828,576.692 137.081,577.504 137.542,578.118C137.629,578.237 137.712,578.385 137.808,578.491C138.589,579.327 139.695,579.77 141.112,579.77C142.374,579.77 143.499,579.423 144.522,578.758C145.511,578.127 146.458,577.118 147.293,575.72C147.293,575.72 153.954,575.72 153.954,575.72C153.954,575.72 153.315,576.999 153.315,576.999C152.053,579.557 150.292,581.552 148.093,582.967C145.893,584.383 143.265,585.152 140.366,585.152C136.597,585.152 133.792,583.933 132.053,581.529C130.928,579.994 130.401,578.039 130.401,575.72C130.401,575.362 130.42,574.976 130.454,574.601C130.523,573.714 130.659,572.819 130.881,571.83C131.802,567.686 133.586,564.344 136.263,562.025C138.662,559.944 141.439,558.79 144.469,558.561ZM220.085,558.561C220.466,558.532 220.816,558.561 221.204,558.561C224.751,558.561 227.477,559.761 229.251,562.132C231.007,564.502 231.433,567.699 230.53,571.723C229.83,574.861 228.82,577.395 227.439,579.237C226.058,581.079 224.297,582.584 222.217,583.607C220.153,584.63 217.968,585.152 215.769,585.152C212.154,585.152 209.462,583.916 207.722,581.529C206.597,580.011 206.017,578.056 206.017,575.72C206.017,574.458 206.156,573.118 206.497,571.617C207.52,567.047 209.609,563.566 212.678,561.332C214.931,559.706 217.419,558.766 220.085,558.561ZM313.712,558.561C314.162,558.534 314.578,558.561 315.045,558.561C317.193,558.561 318.881,558.779 320.16,559.307C321.524,559.853 322.492,560.625 323.038,561.545C323.566,562.415 323.837,563.483 323.837,564.796C323.837,564.796 323.198,568.686 323.198,568.686C323.198,568.686 322.025,573.962 322.025,573.962C321.019,578.463 320.798,580.152 320.746,580.782C320.695,581.635 320.774,582.466 321.013,583.234C321.013,583.234 321.439,584.619 321.439,584.619C321.439,584.619 315.151,584.619 315.151,584.619C315.151,584.619 314.885,583.82 314.885,583.82C314.782,583.445 314.812,582.967 314.778,582.541C313.585,583.274 312.389,583.924 311.314,584.299C309.729,584.845 308.083,585.152 306.412,585.152C303.513,585.152 301.367,584.398 300.071,582.914C299.082,581.823 298.632,580.488 298.632,578.971C298.632,578.391 298.709,577.79 298.845,577.159C299.135,575.863 299.661,574.663 300.497,573.589C301.315,572.531 302.283,571.662 303.374,571.031C304.432,570.4 305.61,569.952 306.838,569.645C306.838,569.645 310.622,569.006 310.622,569.006C313.538,568.665 315.714,568.241 317.283,567.78C317.317,567.61 317.389,567.407 317.389,567.407C317.637,566.31 317.606,565.485 317.336,565.062C317.316,565.035 317.252,564.979 317.229,564.956C317.172,564.895 317.083,564.798 317.016,564.743C316.375,564.235 315.281,563.997 313.819,563.997C312.165,563.997 310.941,564.267 310.089,564.796C309.253,565.325 308.479,566.292 307.797,567.674C307.797,567.674 301.35,567.674 301.35,567.674C301.35,567.674 301.936,566.395 301.936,566.395C302.703,564.621 303.617,563.15 304.76,562.025C305.902,560.9 307.446,560.028 309.236,559.414C310.608,558.961 312.107,558.66 313.712,558.561ZM340.73,558.561C340.97,558.532 341.233,558.561 341.476,558.561C343.027,558.561 344.481,559.028 345.845,560C345.845,560 346.644,560.586 346.644,560.586C346.645,560.586 343.341,566.022 343.341,566.022C343.341,566.022 342.435,565.382 342.435,565.382C341.77,564.956 341.09,564.743 340.356,564.743C339.708,564.743 339.069,564.973 338.438,565.382C337.79,565.808 337.319,566.373 336.893,567.141C336.194,568.454 335.652,569.924 335.294,571.51C335.294,571.51 332.363,584.619 332.363,584.619C332.363,584.619 326.182,584.619 326.182,584.619C326.182,584.619 331.884,559.041 331.884,559.041C331.884,559.041 337.639,559.041 337.639,559.041C337.639,559.041 337.494,559.817 337.426,560.107C337.698,559.902 337.969,559.621 338.225,559.467C339.038,558.974 339.871,558.667 340.73,558.561ZM359.007,558.561C359.379,558.533 359.746,558.561 360.126,558.561C363.605,558.561 366.255,559.781 367.96,562.185C369.051,563.737 369.612,565.655 369.612,567.94C369.612,569.202 369.403,570.56 369.079,572.043L368.653,573.908C368.653,573.908 353.003,573.908 351.281,573.908C351.246,574.266 351.174,574.65 351.174,574.974C351.174,576.304 351.464,577.351 352.027,578.118C352.114,578.237 352.25,578.385 352.346,578.491C352.402,578.551 352.5,578.649 352.559,578.704C353.322,579.397 354.359,579.77 355.65,579.77C356.912,579.77 358.02,579.423 359.061,578.758C360.05,578.127 360.979,577.118 361.832,575.72C361.832,575.72 368.493,575.72 368.493,575.72C368.493,575.72 367.853,576.999 367.853,576.999C366.591,579.557 364.814,581.552 362.631,582.967C360.414,584.383 357.82,585.152 354.904,585.152C351.136,585.152 348.384,583.933 346.644,581.529C344.922,579.175 344.515,575.923 345.419,571.83C346.34,567.669 348.124,564.344 350.801,562.025C353.216,559.944 355.979,558.79 359.007,558.561ZM265.7,559.041C265.7,559.041 272.041,559.041 272.041,559.041C272.041,559.041 272.823,574.22 272.84,574.441C273.096,573.898 273.295,573.44 273.32,573.375C273.32,573.375 280.301,559.041 280.301,559.041C280.301,559.041 286.109,559.041 286.109,559.041C286.109,559.041 286.642,574.036 286.642,574.121C286.813,573.815 294.582,559.041 294.582,559.041C294.582,559.041 300.87,559.041 300.87,559.041C300.87,559.041 287.015,584.619 287.015,584.619C287.015,584.619 281.313,584.619 281.313,584.619C281.313,584.619 280.761,570.749 280.727,569.965C278.374,574.791 273.586,584.619 273.586,584.619C273.586,584.619 267.725,584.619 267.725,584.619C267.725,584.619 265.7,559.041 265.7,559.041ZM116.813,563.89C115.344,563.952 114.01,564.482 112.763,565.489C111.774,566.273 111.106,567.35 110.578,568.526C110.578,568.526 121.076,568.526 121.076,568.526C121.093,568.339 121.129,568.111 121.129,567.94C121.129,566.968 120.956,566.213 120.649,565.702C119.899,564.474 118.786,563.89 117.132,563.89C117.033,563.89 116.911,563.886 116.813,563.89ZM144.576,563.89C143.107,563.952 141.773,564.482 140.526,565.489C139.537,566.273 138.887,567.35 138.341,568.526C138.341,568.526 148.839,568.526 148.839,568.526C148.856,568.339 148.892,568.111 148.892,567.94C148.892,566.968 148.736,566.213 148.412,565.702C148.264,565.453 148.062,565.205 147.88,565.009C147.168,564.273 146.188,563.89 144.895,563.89C144.796,563.89 144.674,563.886 144.576,563.89ZM359.327,563.89C357.817,563.937 356.406,564.448 355.117,565.489C354.145,566.273 353.478,567.35 352.932,568.526C352.933,568.526 363.377,568.526 363.377,568.526C363.394,568.339 363.43,568.111 363.43,567.94C363.43,566.968 363.275,566.213 362.951,565.702C362.217,564.491 361.088,563.907 359.434,563.89C359.385,563.891 359.376,563.889 359.327,563.89ZM219.712,563.997C218.302,564.164 216.992,564.807 215.769,565.915C214.302,567.245 213.239,569.334 212.625,572.097C212.369,573.256 212.252,574.247 212.252,575.134C212.252,576.345 212.484,577.295 212.944,578.011C213.067,578.195 213.23,578.39 213.371,578.544C214.129,579.349 215.187,579.77 216.515,579.77C218.237,579.77 219.755,579.128 221.204,577.798C222.671,576.451 223.717,574.341 224.348,571.51C224.928,568.918 224.847,566.983 224.028,565.755C223.244,564.562 222.097,563.997 220.511,563.997C220.242,563.997 219.973,563.966 219.712,563.997ZM316.004,573.322C314.554,573.714 312.93,574.045 310.782,574.335C309.179,574.573 308.036,574.825 307.371,575.081C306.791,575.319 306.325,575.65 305.932,576.093C305.557,576.519 305.306,576.967 305.186,577.479C305.152,577.683 305.133,577.894 305.133,578.065C305.133,578.079 305.133,578.104 305.133,578.118C305.135,578.159 305.129,578.239 305.133,578.278C305.144,578.355 305.165,578.472 305.186,578.544C305.194,578.568 305.231,578.628 305.24,578.651C305.258,578.697 305.27,578.767 305.293,578.811C305.317,578.854 305.371,578.929 305.399,578.971C305.444,579.032 305.505,579.126 305.559,579.184C305.986,579.661 306.836,579.877 308.064,579.877C309.411,579.877 310.707,579.621 311.901,579.024C313.077,578.444 314.026,577.579 314.725,576.573C315.236,575.857 315.646,574.755 316.004,573.322Z" style="fill:black;fill-opacity:0.937255;"/>
                        <g id="path82" transform="matrix(1.70522,0,0,1.70522,359.45,563.909)">
                            <path d="M0.03,0C0.02,0 0.01,0 0,0C0.97,0.01 1.61,0.34 2.04,1.05C2.23,1.35 2.33,1.8 2.33,2.37C2.33,2.47 2.31,2.6 2.3,2.71L2.34,2.71C2.34,2.6 2.36,2.47 2.36,2.37C2.36,1.8 2.27,1.35 2.08,1.05C1.65,0.33 1,0 0.03,0Z" style="fill:black;fill-opacity:0.937255;"/>
                        </g>
                        <g id="g4966" transform="matrix(1.70522,0,0,1.70522,-200.907,-129.694)">
                            <g id="path86" transform="matrix(1,0,0,1,125.127,453.393)">
                                <path d="M0,36L7.46,36L10.81,22L22.93,22L24.49,16L12.32,16L14.34,7L27.29,7L28.85,0L8.4,0L0,36Z" style="fill:black;fill-opacity:0.937255;"/>
                            </g>
                            <g id="path90" transform="matrix(1,0,0,1,151.077,463.393)">
                                <path d="M7.51,26L9.75,16.6C10.93,11.51 13.42,7 18.13,7C18.55,7 18.96,7.21 19.27,7.26L21.09,0.05C20.67,0.05 20.21,0 19.69,0C16.22,0 13.31,2.44 11.37,5.94L11.17,5.94C11.46,4.23 11.71,2.61 11.9,1L5.47,1C5.1,3.08 4.53,7.15 3.66,10.82L0,26L7.51,26Z" style="fill:black;fill-opacity:0.937255;"/>
                            </g>
                            <g id="path94" transform="matrix(1,0,0,1,171.707,463.393)">
                                <path d="M20.06,19.25C17.99,20.26 15.63,20 12.88,20C10.71,20 9.03,19.62 8.11,18.88C7.63,18.07 7.43,16.81 7.47,16C17.6,16.27 23.99,13.93 24.31,7.53C24.55,2.7 21.02,0 15.89,0C6.73,0 0.73,8.08 0.34,15.86C0,22.65 3.52,26 10.78,26C13.57,26 17.27,25.68 20.3,24.77L20.06,19.25ZM17.32,7.53C17.2,9.91 14.26,10.05 8.47,10C9.1,7.91 11.22,6 14.69,6C16.4,6 17.38,6.65 17.32,7.53Z" style="fill:black;fill-opacity:0.937255;"/>
                            </g>
                            <g id="path98" transform="matrix(1,0,0,1,198.227,463.393)">
                                <path d="M20.05,19.25C17.98,20.26 15.62,20 12.88,20C10.7,20 9.03,19.62 8.11,18.88C7.63,18.07 7.42,16.81 7.46,16C17.6,16.27 23.98,13.93 24.31,7.53C24.55,2.7 21.02,0 15.89,0C6.72,0 0.72,8.08 0.33,15.86C0,22.65 3.52,26 10.77,26C13.57,26 17.27,25.68 20.3,24.77L20.05,19.25ZM17.32,7.53C17.2,9.91 14.26,10.05 8.46,10C9.1,7.91 11.21,6 14.68,6C16.39,6 17.38,6.65 17.32,7.53Z" style="fill:black;fill-opacity:0.937255;"/>
                            </g>
                            <g id="path102" transform="matrix(1,0,0,1,234.137,463.393)">
                                <path d="M22.74,26C22.8,22.83 23.56,17.85 24.35,14.58L27.56,1C25.52,0.31 22.34,0 19.28,0C6.86,0 0.7,9.2 0.27,17.82C0,23.23 2.93,26 7.49,26C10.44,26 13.77,24.57 16.36,20.27L16.47,20.27C16.27,22.34 16.03,24.35 15.9,26L22.74,26ZM17.61,11.72C16.15,18.08 13.17,20 10.95,20C8.88,20 7.98,18.53 8.1,16.39C8.34,11.56 12.16,6 16.98,6C17.76,6 18.37,5.86 18.94,5.72L17.61,11.72Z" style="fill:black;fill-opacity:0.937255;"/>
                            </g>
                            <g id="path106" transform="matrix(1,0,0,1,261.767,463.393)">
                                <path d="M0,24.82C1.44,25.94 4.46,25.95 7.61,26C14.34,26.05 19.42,23.11 19.72,17.71C19.89,14.11 17.1,11.98 14.37,10.55C12.4,9.6 11.41,8.69 11.46,7.63C11.53,6.2 12.87,6 14.84,6C17.06,6 18.84,6.27 19.86,6.47L21.88,1.05C20.73,0.36 18.43,0 15.48,0C8.95,0 4.17,3.45 3.9,8.69C3.74,11.93 6.07,14.11 8.89,15.59C11.17,16.76 11.95,17.66 11.89,18.93C11.82,20.21 10.68,20 8.61,20C6.18,20 3.49,19.68 2.07,19.46L0,24.82Z" style="fill:black;fill-opacity:0.937255;"/>
                            </g>
                            <g id="path110" transform="matrix(1,0,0,1,294.217,452.393)">
                                <path d="M7.45,37L13.5,12L6.09,12L0,37L7.45,37ZM10.92,9C13.46,9 15.72,6.9 15.86,3.3C15.98,0.86 14.4,0 12.07,0C9.64,0 7.42,1.58 7.29,3.94C7.17,6.32 8.75,9 10.92,9Z" style="fill:black;fill-opacity:0.937255;"/>
                            </g>
                            <g id="path114" transform="matrix(1,0,0,1,308.507,464.083)">
                                <path d="M7.46,25.31L10.1,14.05C11.47,8.32 14.42,6.31 16.85,6.31C18.77,6.31 19.33,7.13 19.24,8.32C19.19,9.28 19.04,10.29 18.84,11.19L15.48,25.31L22.94,25.31L26.48,10.5C26.75,9.22 27.05,7.31 27.11,6.15C27.33,1.64 25.08,0 20.94,0C17.62,0 14.39,1.54 11.84,4.88L11.74,4.88L12.42,0.31L5.84,0.31C5.41,2.45 4.86,5.04 4.08,8.06L0,25.31L7.46,25.31Z" style="fill:black;fill-opacity:0.937255;"/>
                            </g>
                            <g id="path118" transform="matrix(1,0,0,1,348.067,453.393)">
                                <path d="M0,36L7.46,36L10.82,22L22.93,22L24.49,16L12.32,16L14.34,7L27.29,7L28.85,0L8.4,0L0,36Z" style="fill:black;fill-opacity:0.937255;"/>
                            </g>
                            <g id="path122" transform="matrix(1,0,0,1,374.017,463.393)">
                                <path d="M7.51,26L9.75,16.6C10.93,11.51 13.42,7 18.13,7C18.55,7 18.96,7.21 19.27,7.26L21.09,0.05C20.67,0.05 20.21,0 19.69,0C16.22,0 13.31,2.44 11.37,5.94L11.17,5.94C11.46,4.23 11.71,2.61 11.9,1L5.47,1C5.11,3.08 4.53,7.15 3.66,10.82L0,26L7.51,26Z" style="fill:black;fill-opacity:0.937255;"/>
                            </g>
                            <g id="path126" transform="matrix(1,0,0,1,394.647,463.393)">
                                <path d="M20.06,19.25C17.99,20.26 15.63,20 12.88,20C10.71,20 9.03,19.62 8.11,18.88C7.63,18.07 7.43,16.81 7.47,16C17.6,16.27 23.99,13.93 24.31,7.53C24.55,2.7 21.02,0 15.89,0C6.73,0 0.73,8.08 0.34,15.86C0,22.65 3.53,26 10.78,26C13.57,26 17.28,25.68 20.3,24.77L20.06,19.25ZM17.32,7.53C17.2,9.91 14.26,10.05 8.47,10C9.1,7.91 11.22,6 14.69,6C16.4,6 17.38,6.65 17.32,7.53Z" style="fill:black;fill-opacity:0.937255;"/>
                            </g>
                            <g id="path130" transform="matrix(1,0,0,1,421.167,463.393)">
                                <path d="M20.05,19.25C17.98,20.26 15.62,20 12.88,20C10.7,20 9.03,19.62 8.11,18.88C7.63,18.07 7.42,16.81 7.46,16C17.6,16.27 23.98,13.93 24.31,7.53C24.55,2.7 21.02,0 15.89,0C6.72,0 0.72,8.08 0.33,15.86C0,22.65 3.52,26 10.77,26C13.57,26 17.27,25.68 20.3,24.77L20.05,19.25ZM17.32,7.53C17.2,9.91 14.26,10.05 8.46,10C9.1,7.91 11.21,6 14.68,6C16.39,6 17.38,6.65 17.32,7.53Z" style="fill:black;fill-opacity:0.937255;"/>
                            </g>
                            <g id="path134" transform="matrix(1,0,0,1,447.547,452.393)">
                                <path d="M23.31,0L20.5,11.36C19.48,10.94 18.15,11 17.11,11C7.53,11 0.75,19.2 0.3,28.08C0,34.34 3.34,37 7.64,37C10.65,37 13.82,35.67 16.22,32.23L16.32,32.23L15.75,37L22.53,37C22.84,34 23.49,30.43 24.22,27.17L30.71,0L23.31,0ZM17.47,24.42C16.3,29.35 13.54,31 11.36,31C9.19,31 7.98,29.49 8.13,26.8C8.38,21.82 11.8,17 16.25,17C17.5,17 18.57,17.19 19.16,17.47L17.47,24.42Z" style="fill:black;fill-opacity:0.937255;"/>
                            </g>
                            <g id="path138" transform="matrix(1,0,0,1,477.257,463.393)">
                                <path d="M10.61,26C19.31,26 26.02,19.41 26.49,10.44C26.78,4.5 23.08,0 16.25,0C7.23,0 0.76,7.3 0.31,16.12C0,22.54 4.14,26 10.61,26ZM11.78,20C9.24,20 7.84,18.38 7.99,15.96C8.19,11.93 10.68,6 14.97,6C17.93,6 18.84,8.27 18.72,10.5C18.5,14.9 15.82,20 11.78,20Z" style="fill:black;fill-opacity:0.937255;"/>
                            </g>
                            <g id="path142" transform="matrix(1,0,0,1,505.817,463.393)">
                                <path d="M7.2,26L9.9,14.58C11.03,9.49 13.85,6 16.38,6C18.2,6 18.7,7.33 18.61,9.07C18.56,9.97 18.36,10.98 18.15,11.98L14.81,26L22.01,26L24.71,14.53C25.95,9.28 28.61,6 31.09,6C32.8,6 33.51,7.22 33.43,8.96C33.38,9.97 33.17,11.08 32.91,12.09L29.67,26L36.92,26L40.41,11.19C40.68,9.86 40.99,7.79 41.04,6.73C41.26,2.33 39.11,0 35.23,0C31.91,0 28.68,1.5 26.23,4.66C26.14,2.38 24.51,0 20.47,0C17.2,0 14.08,1.48 11.58,4.83L11.48,4.83L12.15,1L5.73,1C5.31,3.14 4.8,5.73 4.02,8.75L0,26L7.2,26Z" style="fill:black;fill-opacity:0.937255;"/>
                            </g>
                        </g>
                        <path id="path2592" d="M402.977,590.417C403.67,592.197 404.362,593.974 405.083,595.711C406.193,598.072 407.477,600.332 409.02,602.442C417.356,613.773 431.315,619.977 449.039,621.521L468.104,621.521C474.132,621.051 480.449,620.174 486.996,618.894C498.288,616.686 510.258,613.294 522.689,608.761C532.106,605.327 541.783,601.265 551.604,596.543C572.991,586.291 595.085,573.068 616.76,557.111C623.898,551.86 630.749,546.472 637.325,540.994C643.353,535.978 649.136,530.884 654.659,525.734C670.076,510.878 681.714,495.789 688.304,482.54C695.169,468.743 696.539,456.946 690.915,449.515C687.468,444.953 681.699,442.509 674.272,441.933C707.73,416.829 727.228,386.375 720.233,367.174C718.012,361.047 713.123,356.475 706.115,353.947C703,352.827 699.495,352.117 695.674,351.794L685.377,351.794C670.999,352.831 650.09,357.979 632.352,366.673" style="fill:none;stroke-width:8.53px;stroke:black;"/>
                    </g>
                </g>
            </g>
        </g>
    </g>
</svg>
