<?xml version="1.0" standalone="no"?>
<!DOCTYPE svg PUBLIC "-//W3C//DTD SVG 1.1//EN" "http://www.w3.org/Graphics/SVG/1.1/DTD/svg11.dtd">
<svg width="100%" height="100%" viewBox="0 0 8797 4358" version="1.1" xmlns="http://www.w3.org/2000/svg" xmlns:xlink="http://www.w3.org/1999/xlink" xml:space="preserve" style="fill-rule:evenodd;clip-rule:evenodd;stroke-linejoin:round;stroke-miterlimit:1.41421;">
    <g id="Logo" transform="matrix(4.16667,0,0,4.16667,0,0)">
        <path d="M1172.29,601.498L1104.84,562.559L1104.84,484.681L1172.29,445.742L1239.73,484.681L1239.73,562.559L1172.29,601.498ZM1262.73,471.401L1172.29,419.182L1081.84,471.401L1081.84,575.839L1172.29,628.058L1262.73,575.839L1262.73,471.401Z" style="fill:rgb(110,187,187);fill-rule:nonzero;"/>
        <path d="M891.722,484.68L959.167,445.741L1026.61,484.68L1026.61,562.558L959.167,601.497L891.722,562.558L891.722,484.68ZM1049.61,575.838L1049.61,471.4L959.167,419.181L868.721,471.4L868.721,646.591L891.722,659.871L891.722,589.118L959.167,628.057L1049.61,575.838Z" style="fill:rgb(110,187,187);fill-rule:nonzero;"/>
        <path d="M1317.96,562.558L1317.96,484.68L1385.4,445.741L1452.85,484.68L1452.85,562.558L1385.41,601.497L1317.96,562.558ZM1475.85,575.838L1475.85,471.4L1385.4,419.181L1294.96,471.4L1294.96,646.591L1317.96,659.87L1317.96,589.118L1385.41,628.057L1475.85,575.838Z" style="fill:rgb(110,187,187);fill-rule:nonzero;"/>
        <path d="M1531.08,484.68L1598.53,445.741L1665.97,484.68L1665.97,562.558L1598.53,601.497L1531.08,562.558L1531.08,484.68ZM1688.97,575.838L1688.97,471.4L1598.52,419.181L1508.08,471.4L1508.08,646.591L1531.08,659.871L1531.08,589.118L1598.53,628.057L1688.97,575.838Z" style="fill:rgb(110,187,187);fill-rule:nonzero;"/>
        <path d="M1902.39,574.903L1902.39,451.978L1879.39,465.258L1879.39,561.623L1811.94,600.562L1744.5,561.623L1744.5,465.6L1721.5,452.32L1721.5,574.903L1811.94,627.122L1879.39,588.183L1879.39,660.126L1902.39,646.846L1902.39,574.903Z" style="fill:rgb(110,187,187);fill-rule:nonzero;"/>
        <path d="M344.838,287.369L208.876,365.867L390.157,365.867L344.838,287.369Z" style="fill:rgb(244,138,126);fill-rule:nonzero;"/>
        <path d="M412.818,405.118L480.799,522.869L480.8,365.868L412.818,405.118Z" style="fill:rgb(50,100,129);fill-rule:nonzero;"/>
        <path d="M480.803,313.537L571.437,365.865L480.801,208.875L344.838,287.369L390.16,365.87L480.803,313.537Z" style="fill:rgb(50,100,129);fill-rule:nonzero;"/>
        <path d="M616.759,444.361L480.806,365.868L480.801,365.868L480.801,522.868L616.765,522.868L616.765,444.372L616.759,444.361Z" style="fill:rgb(255,217,132);fill-rule:nonzero;"/>
        <path d="M662.084,522.869L662.085,522.869L662.084,522.867L662.084,522.869Z" style="fill:rgb(255,217,132);fill-rule:nonzero;"/>
        <path d="M299.521,522.855L299.521,418.2L390.155,365.872L390.156,365.871L208.875,365.866L208.875,522.863L299.514,522.866L299.521,522.855Z" style="fill:rgb(255,217,132);fill-rule:nonzero;"/>
        <path d="M616.766,444.368L616.766,444.364L616.762,444.364L616.766,444.368Z" style="fill:rgb(244,138,126);fill-rule:nonzero;"/>
        <path d="M571.447,365.87L662.084,418.199L662.084,522.862L662.086,522.866L752.725,522.862L752.725,365.866L571.447,365.87Z" style="fill:rgb(244,138,126);fill-rule:nonzero;"/>
        <path d="M571.447,365.87L752.725,365.866L480.8,208.87L571.44,365.866L571.447,365.87Z" style="fill:rgb(255,217,132);fill-rule:nonzero;"/>
        <path d="M480.803,522.871L412.817,405.119L344.841,444.365L344.841,522.868L480.803,522.871Z" style="fill:rgb(91,127,191);fill-rule:nonzero;"/>
        <path d="M480.803,522.871L344.841,522.868L344.841,601.361L480.802,679.858L480.803,522.871Z" style="fill:rgb(110,187,187);fill-rule:nonzero;"/>
        <path d="M344.838,653.689L344.838,758.354L480.8,836.854L480.801,732.187L344.838,653.689Z" style="fill:rgb(110,187,187);fill-rule:nonzero;"/>
        <path d="M299.515,575.708L299.522,575.711L299.522,522.867L299.521,522.867L208.879,679.857L299.515,732.187L299.515,575.708Z" style="fill:rgb(110,187,187);fill-rule:nonzero;"/>
        <path d="M480.803,732.188L480.801,732.187L480.801,836.854L616.763,758.356L571.441,679.858L480.803,732.188Z" style="fill:rgb(244,138,126);fill-rule:nonzero;"/>
        <path d="M548.782,640.611L480.801,522.866L480.801,679.857L480.803,679.859L548.782,640.611Z" style="fill:rgb(244,138,126);fill-rule:nonzero;"/>
        <path d="M616.765,522.866L480.803,522.866L548.782,640.61L616.765,601.36L616.765,522.866Z" style="fill:rgb(91,127,191);fill-rule:nonzero;"/>
        <path d="M662.084,522.867L662.084,627.526L571.442,679.858L616.763,758.356L752.725,679.862L662.084,522.867Z" style="fill:rgb(91,127,191);fill-rule:nonzero;"/>
        <path d="M208.876,522.863L208.876,679.862L299.518,522.867L208.876,522.863Z" style="fill:rgb(244,138,126);fill-rule:nonzero;"/>
        <path d="M662.084,522.866L662.084,522.867L752.725,679.862L752.725,522.862L662.084,522.866Z" style="fill:rgb(110,187,187);fill-rule:nonzero;"/>
    </g>
</svg>
