<?xml version="1.0" standalone="no"?>
<!DOCTYPE svg PUBLIC "-//W3C//DTD SVG 1.1//EN" "http://www.w3.org/Graphics/SVG/1.1/DTD/svg11.dtd">
<svg width="100%" height="100%" viewBox="0 0 800 800" version="1.1" xmlns="http://www.w3.org/2000/svg" xmlns:xlink="http://www.w3.org/1999/xlink" xml:space="preserve" style="fill-rule:evenodd;clip-rule:evenodd;stroke-linejoin:round;stroke-miterlimit:1.41421;">
    <g transform="matrix(3.06824,0,0,3.08086,-3.39475,0.303501)">
        <g id="Layer1">
            <g id="Group-Copy-4">
                <path id="Fill-9" d="M131.257,205.274C88.668,205.274 51.58,189.962 32.273,167.34C46.884,207.895 85.684,236.889 131.257,236.889C176.831,236.889 215.631,207.895 230.242,167.34C210.935,189.962 173.848,205.274 131.257,205.274" style="fill:rgb(228,110,46);"/>
                <path id="Fill-10" d="M131.257,58.041C173.848,58.041 210.935,73.352 230.242,95.974C215.631,55.42 176.831,26.425 131.257,26.425C85.684,26.425 46.884,55.42 32.273,95.974C51.58,73.352 88.668,58.041 131.257,58.041" style="fill:rgb(228,110,46);"/>
                <path id="Fill-11" d="M51.457,259.865C42.325,260.256 34.605,253.17 34.214,244.039C33.822,234.907 40.908,227.187 50.04,226.795C59.172,226.404 66.892,233.49 67.283,242.622C67.674,251.753 60.589,259.474 51.457,259.865Z" style="fill:rgb(118,116,116);"/>
                <path id="Fill-12" d="M38.757,44.365C33.05,44.609 28.225,40.181 27.98,34.474C27.736,28.766 32.164,23.941 37.872,23.696C43.579,23.451 48.405,27.88 48.649,33.588C48.894,39.295 44.465,44.121 38.757,44.365Z" style="fill:rgb(118,116,116);"/>
                <path id="Fill-8" d="M202.982,32.11C194.119,32.489 186.626,25.613 186.247,16.75C185.867,7.887 192.744,0.394 201.607,0.015C210.47,-0.365 217.962,6.512 218.341,15.375C218.721,24.238 211.844,31.73 202.982,32.11Z" style="fill:rgb(118,116,116);"/>
                <g id="Group-Copy" transform="matrix(1,0,0,1,0,100.871)">
                    <path id="Fill-1" d="M10.91,44.749C10.91,54.281 10.165,57.403 8.178,59.703C6.44,61.593 3.542,62.497 0.23,62.744L0.975,68.413C4.866,68.413 10.165,67.099 13.394,63.894C16.954,60.279 18.196,55.266 18.196,47.543L18.196,11.47L10.91,11.47L10.91,44.749" style="fill:rgb(49,57,64);"/>
                    <path id="Fill-2" d="M65.305,40.394C65.305,44.502 65.387,48.118 65.636,51.24L59.178,51.24L58.764,44.749L58.599,44.749C56.694,47.953 52.471,52.143 45.352,52.143C39.06,52.143 31.525,48.693 31.525,34.725L31.525,11.47L38.812,11.47L38.812,33.492C38.812,41.051 41.129,46.146 47.753,46.146C52.637,46.146 56.032,42.777 57.357,39.572C57.771,38.504 58.019,37.189 58.019,35.874L58.019,11.47L65.305,11.47L65.305,40.394" style="fill:rgb(49,57,64);"/>
                    <path id="Fill-3" d="M79.049,24.453C79.049,19.359 78.884,15.25 78.718,11.47L85.259,11.47L85.59,18.29L85.756,18.29C88.736,13.442 93.455,10.566 99.995,10.566C109.682,10.566 116.968,18.701 116.968,30.78C116.968,45.078 108.192,52.143 98.754,52.143C93.455,52.143 88.819,49.843 86.418,45.899L86.253,45.899L86.253,67.509L79.049,67.509L79.049,24.453ZM86.253,35.053C86.253,36.121 86.418,37.108 86.584,38.011C87.908,43.023 92.296,46.474 97.512,46.474C105.211,46.474 109.682,40.23 109.682,31.109C109.682,23.139 105.46,16.318 97.761,16.318C92.793,16.318 88.157,19.852 86.749,25.275C86.501,26.179 86.253,27.247 86.253,28.233L86.253,35.053Z" style="fill:rgb(49,57,64);"/>
                    <path id="Fill-4" d="M129.884,11.47L138.66,34.971C139.571,37.601 140.564,40.722 141.227,43.106L141.392,43.106C142.138,40.722 142.966,37.682 143.959,34.806L151.907,11.47L159.607,11.47L148.678,39.819C143.462,53.458 139.902,60.443 134.935,64.716C131.375,67.838 127.815,69.07 125.994,69.399L124.172,63.319C125.994,62.744 128.394,61.593 130.547,59.786C132.534,58.224 135.018,55.43 136.674,51.733C137.005,50.994 137.253,50.419 137.253,50.008C137.253,49.596 137.088,49.022 136.756,48.118L121.937,11.47L129.884,11.47" style="fill:rgb(49,57,64);"/>
                    <path id="Fill-5" d="M178.767,0.049L178.767,11.47L189.199,11.47L189.199,16.976L178.767,16.976L178.767,38.422C178.767,43.352 180.175,46.146 184.231,46.146C186.135,46.146 187.543,45.899 188.454,45.653L188.785,51.076C187.377,51.651 185.142,52.062 182.328,52.062C178.933,52.062 176.2,50.994 174.462,49.022C172.393,46.885 171.647,43.352 171.647,38.668L171.647,16.976L165.438,16.976L165.438,11.47L171.647,11.47L171.647,1.939L178.767,0.049" style="fill:rgb(49,57,64);"/>
                    <path id="Fill-6" d="M202.612,32.67C202.777,42.448 209.07,46.474 216.355,46.474C221.571,46.474 224.717,45.571 227.449,44.42L228.691,49.596C226.124,50.747 221.737,52.062 215.361,52.062C203.026,52.062 195.657,44.009 195.657,32.013C195.657,20.016 202.777,10.566 214.451,10.566C227.532,10.566 231.009,21.988 231.009,29.301C231.009,30.78 230.844,31.93 230.761,32.67L202.612,32.67ZM223.972,27.493C224.055,22.892 222.068,15.743 213.871,15.743C206.503,15.743 203.274,22.481 202.695,27.493L223.972,27.493Z" style="fill:rgb(49,57,64);"/>
                    <path id="Fill-7" d="M241.691,23.877C241.691,19.194 241.608,15.167 241.359,11.47L247.734,11.47L247.983,19.277L248.314,19.277C250.135,13.936 254.523,10.566 259.408,10.566C260.236,10.566 260.816,10.649 261.478,10.813L261.478,17.633C260.733,17.469 259.987,17.387 258.994,17.387C253.86,17.387 250.218,21.248 249.225,26.671C249.059,27.657 248.893,28.808 248.893,30.04L248.893,51.24L241.691,51.24L241.691,23.877" style="fill:rgb(49,57,64);"/>
                </g>
            </g>
        </g>
    </g>
</svg>
