<?xml version="1.0" standalone="no"?>
<!DOCTYPE svg PUBLIC "-//W3C//DTD SVG 1.1//EN" "http://www.w3.org/Graphics/SVG/1.1/DTD/svg11.dtd">
<svg width="100%" height="100%" viewBox="0 0 171 147" version="1.1" xmlns="http://www.w3.org/2000/svg" xmlns:xlink="http://www.w3.org/1999/xlink" xml:space="preserve" style="fill-rule:evenodd;clip-rule:evenodd;stroke-linejoin:round;stroke-miterlimit:1.41421;">
    <g transform="matrix(1.00432,0,0,1.00192,-222.462,-388.572)">
        <g id="Layer1">
            <g id="Layer 1">
                <path d="M232.7,511.623C232.7,510.507 232.319,509.548 231.557,508.747C230.796,507.947 229.858,507.547 228.745,507.547C227.632,507.547 226.695,507.947 225.934,508.747C225.172,509.548 224.791,510.507 224.791,511.623L224.791,517.512C224.791,518.055 224.894,518.576 225.099,519.074C225.304,519.572 225.582,520.011 225.934,520.388C226.285,520.766 226.703,521.06 227.186,521.27C227.669,521.482 228.189,521.588 228.745,521.588C229.858,521.588 230.796,521.188 231.557,520.388C232.319,519.588 232.7,518.629 232.7,517.512L232.7,511.623ZM234.479,523.105C233.791,523.785 232.963,524.306 231.997,524.668C231.03,525.03 229.946,525.211 228.745,525.211C227.544,525.211 226.461,525.03 225.494,524.668C224.528,524.306 223.7,523.785 223.012,523.105C222.324,522.426 221.789,521.61 221.408,520.659C221.028,519.708 220.837,518.659 220.837,517.512L220.837,511.623C220.837,510.477 221.028,509.427 221.408,508.476C221.789,507.524 222.324,506.709 223.012,506.029C223.7,505.351 224.528,504.829 225.494,504.467C226.461,504.104 227.544,503.923 228.745,503.923C229.946,503.923 231.03,504.112 231.997,504.489C232.963,504.867 233.791,505.395 234.479,506.075C235.167,506.754 235.702,507.562 236.083,508.498C236.463,509.435 236.654,510.477 236.654,511.623L236.654,517.512C236.654,518.659 236.463,519.708 236.083,520.659C235.702,521.61 235.167,522.426 234.479,523.105M250.493,512.076C250.493,511.532 250.39,511.012 250.185,510.514C249.98,510.016 249.702,509.578 249.351,509.2C248.999,508.823 248.582,508.528 248.098,508.316C247.616,508.105 247.095,508 246.539,508C245.426,508 244.489,508.4 243.727,509.2C242.965,510.001 242.585,510.96 242.585,512.076L242.585,517.059C242.585,518.176 242.965,519.135 243.727,519.935C244.489,520.735 245.426,521.135 246.539,521.135C247.095,521.135 247.616,521.029 248.098,520.818C248.582,520.607 248.999,520.312 249.351,519.935C249.702,519.558 249.98,519.119 250.185,518.621C250.39,518.123 250.493,517.602 250.493,517.059L250.493,512.076ZM252.36,522.561C251.701,523.241 250.932,523.777 250.054,524.17C249.175,524.562 248.223,524.759 247.198,524.759C246.554,524.759 245.99,524.684 245.506,524.532C245.023,524.381 244.606,524.208 244.254,524.011C243.903,523.815 243.617,523.642 243.397,523.49C243.178,523.34 243.024,523.264 242.936,523.264C242.701,523.264 242.585,523.43 242.585,523.762L242.585,534.497C242.585,534.798 242.438,534.949 242.145,534.949L239.07,534.949C238.777,534.949 238.631,534.798 238.631,534.497L238.631,504.829C238.631,504.527 238.777,504.376 239.07,504.376L241.706,504.376C241.998,504.376 242.145,504.527 242.145,504.829L242.145,505.373C242.145,505.705 242.248,505.871 242.453,505.871C242.599,505.871 242.789,505.796 243.024,505.644C243.258,505.494 243.551,505.32 243.903,505.124C244.254,504.928 244.672,504.754 245.155,504.602C245.638,504.452 246.202,504.376 246.846,504.376C247.959,504.376 248.977,504.565 249.9,504.942C250.823,505.32 251.62,505.849 252.294,506.527C252.968,507.207 253.495,508.016 253.876,508.951C254.256,509.888 254.447,510.929 254.447,512.076L254.447,517.059C254.447,518.176 254.264,519.203 253.898,520.139C253.532,521.075 253.019,521.882 252.36,522.561M267.298,509.902C267.078,509.449 266.785,509.049 266.419,508.702C266.053,508.355 265.635,508.075 265.167,507.864C264.698,507.653 264.2,507.547 263.673,507.547C263.146,507.547 262.641,507.653 262.158,507.864C261.674,508.075 261.257,508.362 260.905,508.725C260.554,509.087 260.268,509.502 260.049,509.97C259.829,510.438 259.719,510.914 259.719,511.396C259.719,511.639 259.741,511.812 259.785,511.918C259.829,512.023 259.953,512.076 260.158,512.076L267.188,512.076C267.392,512.076 267.517,512.016 267.561,511.895C267.605,511.774 267.627,511.578 267.627,511.307C267.627,510.823 267.517,510.355 267.298,509.902M271.142,515.247L260.158,515.247C259.865,515.247 259.719,515.398 259.719,515.699L259.719,517.512C259.719,518.055 259.821,518.576 260.027,519.074C260.231,519.572 260.51,520.011 260.861,520.388C261.213,520.766 261.63,521.06 262.114,521.27C262.596,521.482 263.117,521.588 263.673,521.588C264.2,521.588 264.676,521.497 265.101,521.316C265.525,521.135 265.855,520.894 266.09,520.592C266.587,519.988 266.946,519.519 267.166,519.187C267.386,518.855 267.568,518.689 267.715,518.689C267.774,518.689 267.862,518.72 267.979,518.779L270.747,520.229C270.922,520.319 271.01,520.426 271.01,520.546C271.01,520.697 270.871,521.037 270.593,521.565C270.314,522.094 269.839,522.675 269.165,523.31C267.847,524.577 266.016,525.211 263.673,525.211C262.472,525.211 261.388,525.03 260.422,524.668C259.455,524.306 258.627,523.785 257.94,523.105C257.251,522.426 256.716,521.61 256.336,520.659C255.955,519.708 255.765,518.659 255.765,517.512L255.765,511.623C255.765,510.597 255.97,509.615 256.38,508.68C256.79,507.743 257.353,506.929 258.072,506.233C258.789,505.539 259.624,504.98 260.575,504.558C261.527,504.135 262.56,503.923 263.673,503.923C264.756,503.923 265.782,504.135 266.749,504.558C267.715,504.98 268.557,505.539 269.275,506.233C269.992,506.929 270.556,507.743 270.966,508.68C271.376,509.615 271.581,510.597 271.581,511.623L271.581,514.794C271.581,515.096 271.434,515.247 271.142,515.247M288.935,524.759L285.86,524.759C285.567,524.759 285.421,524.607 285.421,524.306L285.421,512.076C285.421,511.532 285.318,511.012 285.113,510.514C284.908,510.016 284.63,509.578 284.278,509.2C283.927,508.823 283.51,508.528 283.026,508.316C282.543,508.105 282.022,508 281.467,508C280.353,508 279.416,508.4 278.655,509.2C277.892,510.001 277.512,510.96 277.512,512.076L277.512,524.306C277.512,524.607 277.366,524.759 277.073,524.759L273.997,524.759C273.704,524.759 273.558,524.607 273.558,524.306L273.558,504.829C273.558,504.527 273.704,504.376 273.997,504.376L276.634,504.376C276.926,504.376 277.073,504.527 277.073,504.829L277.073,505.373C277.073,505.705 277.175,505.871 277.38,505.871C277.527,505.871 277.717,505.796 277.951,505.644C278.186,505.494 278.479,505.32 278.83,505.124C279.182,504.928 279.599,504.754 280.082,504.602C280.566,504.452 281.129,504.376 281.774,504.376C282.887,504.376 283.905,504.565 284.827,504.942C285.75,505.32 286.548,505.849 287.222,506.527C287.895,507.207 288.423,508.016 288.804,508.951C289.184,509.888 289.375,510.929 289.375,512.076L289.375,524.306C289.375,524.607 289.228,524.759 288.935,524.759M304.471,512.352C305.73,512.624 306.85,512.896 307.832,513.168C308.813,513.439 309.633,513.772 310.292,514.164C310.951,514.558 311.456,515.056 311.808,515.659C312.159,516.264 312.335,517.033 312.335,517.969C312.335,519.902 311.705,521.473 310.446,522.68C309.186,523.888 307.488,524.491 305.35,524.491L303.988,524.491C302.962,524.491 302.033,524.355 301.198,524.084C300.364,523.811 299.653,523.473 299.067,523.064C298.481,522.657 298.027,522.227 297.705,521.773C297.382,521.321 297.221,520.913 297.221,520.551C297.221,520.431 297.325,520.324 297.53,520.233L299.242,519.373C299.301,519.344 299.374,519.328 299.462,519.328C299.55,519.328 299.666,519.403 299.814,519.555C300.106,519.887 300.385,520.204 300.649,520.506C300.912,520.808 301.204,521.079 301.528,521.321C301.85,521.562 302.208,521.751 302.604,521.887C302.999,522.022 303.46,522.091 303.988,522.091L305.35,522.091C306.58,522.091 307.561,521.773 308.293,521.14C309.025,520.506 309.392,519.721 309.392,518.784C309.392,517.185 307.956,516.082 305.086,515.477C303.797,515.206 302.67,514.95 301.703,514.708C300.737,514.467 299.916,514.149 299.242,513.757C298.569,513.364 298.063,512.866 297.727,512.262C297.39,511.658 297.221,510.858 297.221,509.861C297.221,507.989 297.836,506.473 299.067,505.31C300.297,504.147 301.938,503.565 303.988,503.565L305.35,503.565C306.345,503.565 307.253,503.701 308.074,503.974C308.893,504.245 309.604,504.578 310.204,504.97C310.804,505.362 311.266,505.785 311.588,506.238C311.91,506.691 312.072,507.084 312.072,507.416C312.072,507.537 311.969,507.643 311.764,507.732L310.095,508.594C310.035,508.624 309.977,508.639 309.919,508.639C309.831,508.639 309.713,508.563 309.568,508.412C308.952,507.718 308.344,507.137 307.744,506.668C307.144,506.2 306.345,505.966 305.35,505.966L303.988,505.966C302.699,505.966 301.725,506.231 301.066,506.759C300.407,507.288 300.077,508.02 300.077,508.956C300.077,509.892 300.429,510.609 301.131,511.107C301.834,511.605 302.948,512.02 304.471,512.352M326.526,510.948C326.526,510.314 326.4,509.703 326.151,509.114C325.901,508.525 325.569,508.013 325.157,507.574C324.744,507.137 324.244,506.789 323.657,506.532C323.067,506.276 322.45,506.147 321.803,506.147C321.126,506.147 320.5,506.276 319.926,506.532C319.353,506.789 318.86,507.129 318.448,507.552C318.035,507.975 317.712,508.48 317.477,509.069C317.241,509.657 317.123,510.285 317.123,510.948L317.123,517.063C317.123,517.727 317.241,518.354 317.477,518.943C317.712,519.532 318.043,520.046 318.47,520.482C318.897,520.921 319.39,521.269 319.949,521.524C320.507,521.781 321.126,521.91 321.803,521.91C322.45,521.91 323.067,521.781 323.657,521.524C324.244,521.269 324.744,520.921 325.157,520.482C325.569,520.046 325.901,519.532 326.151,518.943C326.4,518.354 326.526,517.727 326.526,517.063L326.526,510.948ZM321.781,524.491C319.437,524.491 317.585,523.819 316.223,522.476C314.861,521.133 314.18,519.328 314.18,517.063L314.18,510.948C314.18,508.684 314.861,506.888 316.223,505.559C317.585,504.23 319.437,503.565 321.781,503.565C322.951,503.565 324.006,503.747 324.944,504.109C325.881,504.472 326.686,504.977 327.361,505.627C328.033,506.276 328.554,507.054 328.92,507.959C329.286,508.865 329.469,509.861 329.469,510.948L329.469,517.063C329.469,519.298 328.773,521.095 327.382,522.453C325.991,523.811 324.123,524.491 321.781,524.491M346.648,524.038L345.022,524.038C344.729,524.038 344.582,523.888 344.582,523.586L344.582,521.638C344.582,521.306 344.465,521.14 344.231,521.14C344.026,521.14 343.806,521.291 343.573,521.593C343.337,521.894 343.015,522.257 342.606,522.68C341.668,523.586 340.452,524.038 338.959,524.038C337.963,524.038 337.026,523.857 336.147,523.495C335.269,523.133 334.506,522.627 333.863,521.977C333.218,521.329 332.712,520.544 332.347,519.622C331.98,518.701 331.797,517.697 331.797,516.61L331.797,504.472C331.797,504.17 331.944,504.019 332.237,504.019L334.302,504.019C334.594,504.019 334.742,504.17 334.742,504.472L334.742,516.61C334.742,517.274 334.866,517.901 335.115,518.49C335.364,519.079 335.693,519.593 336.103,520.03C336.513,520.468 337.004,520.815 337.575,521.072C338.146,521.329 338.753,521.457 339.399,521.457C340.072,521.457 340.701,521.329 341.287,521.072C341.873,520.815 342.378,520.468 342.803,520.03C343.228,519.593 343.557,519.079 343.791,518.49C344.026,517.901 344.143,517.274 344.143,516.61L344.143,504.472C344.143,504.17 344.289,504.019 344.582,504.019L346.648,504.019C346.94,504.019 347.087,504.17 347.087,504.472L347.087,523.586C347.087,523.888 346.94,524.038 346.648,524.038M359.827,507.234C359.652,507.234 359.424,507.212 359.147,507.167C358.867,507.121 358.538,507.099 358.158,507.099C357.484,507.099 356.862,507.22 356.29,507.461C355.72,507.703 355.229,508.043 354.819,508.48C354.408,508.918 354.086,509.424 353.853,509.997C353.617,510.571 353.501,511.19 353.501,511.854L353.501,523.586C353.501,523.888 353.356,524.038 353.068,524.038L350.991,524.038C350.701,524.038 350.557,523.888 350.557,523.586L350.557,504.472C350.557,504.17 350.701,504.019 350.991,504.019L352.592,504.019C352.88,504.019 353.025,504.17 353.025,504.472L353.025,506.736C353.025,507.069 353.14,507.234 353.371,507.234C353.604,507.234 353.925,506.993 354.335,506.51C354.745,506.027 355.346,505.453 356.137,504.789C356.371,504.578 356.686,504.396 357.081,504.245C357.477,504.095 357.835,504.019 358.158,504.019L359.783,504.019C360.076,504.019 360.223,504.17 360.223,504.472L360.223,506.781C360.223,507.084 360.091,507.234 359.827,507.234M372.569,508.774C372.509,508.805 372.45,508.819 372.393,508.819C372.275,508.819 372.158,508.76 372.041,508.639C371.718,508.337 371.41,508.035 371.118,507.732C370.825,507.432 370.518,507.159 370.196,506.917C369.873,506.676 369.529,506.487 369.163,506.352C368.796,506.216 368.365,506.147 367.867,506.147C367.193,506.147 366.571,506.276 366,506.532C365.429,506.789 364.938,507.129 364.528,507.552C364.117,507.975 363.795,508.48 363.562,509.069C363.326,509.657 363.21,510.285 363.21,510.948L363.21,517.063C363.21,517.727 363.326,518.354 363.562,518.943C363.795,519.532 364.125,520.046 364.55,520.482C364.974,520.921 365.465,521.269 366.022,521.524C366.577,521.781 367.193,521.91 367.867,521.91C368.95,521.91 369.917,521.502 370.767,520.686C371.235,520.233 371.579,519.864 371.799,519.577C372.019,519.29 372.201,519.146 372.349,519.146C372.437,519.146 372.509,519.162 372.569,519.192L374.413,520.144C374.589,520.204 374.677,520.324 374.677,520.506C374.677,520.868 374.516,521.283 374.194,521.751C373.871,522.22 373.409,522.657 372.81,523.064C372.209,523.473 371.492,523.811 370.657,524.084C369.823,524.355 368.892,524.491 367.867,524.491C365.524,524.491 363.671,523.819 362.309,522.476C360.948,521.133 360.266,519.328 360.266,517.063L360.266,510.948C360.266,508.684 360.948,506.888 362.309,505.559C363.671,504.23 365.524,503.565 367.867,503.565C368.892,503.565 369.823,503.701 370.657,503.974C371.492,504.245 372.209,504.578 372.81,504.97C373.409,505.362 373.878,505.785 374.216,506.238C374.552,506.691 374.721,507.099 374.721,507.461C374.721,507.612 374.618,507.732 374.413,507.823L372.569,508.774ZM388.56,510.948C388.56,510.314 388.434,509.703 388.185,509.114C387.935,508.525 387.603,508.013 387.191,507.574C386.78,507.137 386.279,506.789 385.691,506.532C385.102,506.276 384.484,506.147 383.837,506.147C383.16,506.147 382.534,506.276 381.961,506.532C381.387,506.789 380.894,507.129 380.482,507.552C380.071,507.975 379.746,508.48 379.511,509.069C379.276,509.657 379.158,510.285 379.158,510.948L379.158,511.583C379.158,511.885 379.305,512.035 379.599,512.035L388.118,512.035C388.412,512.035 388.56,511.885 388.56,511.583L388.56,510.948ZM391.064,514.164L379.597,514.164C379.304,514.164 379.158,514.315 379.158,514.617L379.158,517.063C379.158,517.727 379.276,518.354 379.511,518.943C379.746,519.532 380.077,520.046 380.504,520.482C380.931,520.921 381.424,521.269 381.984,521.524C382.542,521.781 383.16,521.91 383.837,521.91C384.926,521.91 385.897,521.502 386.751,520.686C387.222,520.233 387.568,519.864 387.788,519.577C388.009,519.29 388.193,519.146 388.34,519.146C388.428,519.146 388.501,519.162 388.56,519.192L390.406,520.144C390.581,520.204 390.669,520.324 390.669,520.506C390.669,520.868 390.507,521.283 390.186,521.751C389.863,522.22 389.402,522.657 388.8,523.064C388.199,523.473 387.48,523.811 386.642,524.084C385.804,524.355 384.87,524.491 383.842,524.491C381.491,524.491 379.631,523.819 378.264,522.476C376.898,521.133 376.214,519.328 376.214,517.063L376.214,510.948C376.214,510.103 376.39,509.243 376.742,508.367C377.093,507.491 377.605,506.691 378.28,505.966C379.743,504.366 381.589,503.565 383.815,503.565C384.869,503.565 385.865,503.769 386.802,504.177C387.74,504.585 388.56,505.128 389.263,505.808C389.966,506.487 390.515,507.272 390.91,508.163C391.306,509.054 391.503,509.982 391.503,510.948L391.503,513.712C391.503,514.014 391.357,514.164 391.064,514.164" style="fill:rgb(35,31,32);fill-rule:nonzero;"/>
                <path d="M296.137,388.855C308.125,386.845 320.772,388.976 331.393,394.91C342.024,400.784 350.575,410.347 355.188,421.585C359.875,432.835 360.542,445.687 357.127,457.382C352.507,473.545 339.871,487.19 324.055,492.914C322.759,493.526 321.762,492.211 321.474,491.108C317.594,480.662 313.597,470.252 309.757,459.793C308.863,457.91 311.184,457.238 312.432,456.595C319.284,453.32 322.945,444.776 320.575,437.546C318.829,431.648 313.459,427.052 307.363,426.242C300.403,425.114 293.077,429.236 290.299,435.685C287.635,441.482 288.889,448.796 293.365,453.349C295.123,455.347 297.553,456.494 299.875,457.687C300.913,458.251 300.553,459.601 300.199,460.484C296.293,470.804 292.453,481.141 288.547,491.461C288.271,492.349 287.359,493.399 286.339,492.967C267.283,486.295 253.039,467.936 251.197,447.835C249.769,434.629 253.453,420.962 261.349,410.282C269.575,398.972 282.331,391.087 296.137,388.855" style="fill:rgb(28,83,43);fill-rule:nonzero;"/>
                <path d="M293.551,393.23C303.542,390.866 314.245,391.652 323.785,395.462C334.681,399.764 343.957,408.014 349.543,418.316C354.552,427.472 356.582,438.218 355.273,448.58C354.001,459.195 349.183,469.329 341.81,477.069C336.985,482.205 331.033,486.207 324.59,489.015C321.001,479.42 317.275,469.875 313.849,460.22C319.651,457.268 323.983,451.502 324.757,444.986C326.114,436.142 320.576,426.932 312.193,423.884C304.471,420.812 295.004,423.291 289.807,429.777C284.792,435.71 283.855,444.674 287.515,451.521C289.429,455.336 292.73,458.258 296.437,460.281C292.843,469.85 289.256,479.42 285.655,488.984C275.767,484.844 267.254,477.506 261.745,468.308C257.089,460.568 254.533,451.556 254.593,442.514C254.455,431.312 258.331,420.146 265.249,411.351C272.263,402.332 282.415,395.804 293.551,393.23" style="fill:rgb(56,171,84);fill-rule:nonzero;"/>
                <path d="M373.672,487.973C372.832,485.819 372.418,483.521 372.076,481.246C370.888,483.731 369.472,486.101 368.164,488.525C366.85,486.101 365.499,483.695 364.271,481.229C363.91,483.544 363.305,485.813 362.728,488.08C362.086,488.08 361.443,488.087 360.809,488.087C361.749,484.126 362.86,480.209 363.724,476.231C365.235,479.015 366.73,481.817 368.11,484.673C369.676,481.924 370.972,479.033 372.55,476.29C373.438,480.281 374.603,484.204 375.538,488.189C375.07,488.135 374.134,488.027 373.672,487.973" style="fill:rgb(28,83,43);fill-rule:nonzero;"/>
                <path d="M356.35,478.312C356.332,481.57 356.357,484.828 356.332,488.086C355.655,488.086 354.976,488.08 354.305,488.086C354.281,484.828 354.298,481.576 354.287,478.324L350.932,478.324C350.932,477.82 350.938,477.316 350.938,476.812C353.861,476.812 356.783,476.818 359.704,476.805C359.686,477.322 359.674,477.838 359.663,478.36C358.559,478.336 357.448,478.324 356.35,478.312" style="fill:rgb(28,83,43);fill-rule:nonzero;"/>
            </g>
        </g>
    </g>
</svg>
